<?xml version="1.0" encoding="UTF-8" standalone="no"?>
<!-- Created with Inkscape (http://www.inkscape.org/) -->

<svg
   xmlns:dc="http://purl.org/dc/elements/1.1/"
   xmlns:cc="http://creativecommons.org/ns#"
   xmlns:rdf="http://www.w3.org/1999/02/22-rdf-syntax-ns#"
   xmlns:svg="http://www.w3.org/2000/svg"
   xmlns="http://www.w3.org/2000/svg"
   xmlns:sodipodi="http://sodipodi.sourceforge.net/DTD/sodipodi-0.dtd"
   xmlns:inkscape="http://www.inkscape.org/namespaces/inkscape"
   width="157.12024mm"
   height="55.035038mm"
   viewBox="0 0 157.12024 55.035039"
   version="1.1"
   id="svg4692"
   inkscape:version="0.92.0 r15299"
   sodipodi:docname="logo-horizontal.svg">
  <defs
     id="defs4686" />
  <sodipodi:namedview
     id="base"
     pagecolor="#ffffff"
     bordercolor="#666666"
     borderopacity="1.0"
     inkscape:pageopacity="0.0"
     inkscape:pageshadow="2"
     inkscape:zoom="0.49497475"
     inkscape:cx="395.06804"
     inkscape:cy="-157.38816"
     inkscape:document-units="mm"
     inkscape:current-layer="layer1"
     showgrid="false"
     fit-margin-top="0"
     fit-margin-left="0"
     fit-margin-right="0"
     fit-margin-bottom="0"
     inkscape:window-width="1920"
     inkscape:window-height="1137"
     inkscape:window-x="1912"
     inkscape:window-y="-8"
     inkscape:window-maximized="1" />
  <metadata
     id="metadata4689">
    <rdf:RDF>
      <cc:Work
         rdf:about="">
        <dc:format>image/svg+xml</dc:format>
        <dc:type
           rdf:resource="http://purl.org/dc/dcmitype/StillImage" />
        <dc:title></dc:title>
      </cc:Work>
    </rdf:RDF>
  </metadata>
  <g
     inkscape:label="Layer 1"
     inkscape:groupmode="layer"
     id="layer1"
     transform="translate(-99.549951,-88.23201)">
    <g
       data-item-type="image"
       data-item="Image"
       data-logo-item=""
       id="logo__item--logo_0"
       class="logo__item"
       transform="matrix(0.47908853,0,0,0.47908853,-319.56663,-114.25907)">
      <g
         class="logo__item__inner"
         transform="matrix(0.93530785,0,0,0.93530785,854.99221,410.5)"
         id="g4499">
        <g
           id="g4497">
          <path
             style="fill:#00a9de"
             inkscape:connector-curvature="0"
             d="m 77.9,101.3 c 17.6,0 31.8,-14.3 31.8,-31.8 0,-2 -0.2,-3.8 -0.5,-5.7 C 106,37.5 77.8,13 77.8,13 h -0.2 c 0,0 -34.3,29.9 -31.5,58.9 1.3,16.5 15,29.4 31.8,29.4 z M 77.7,26 h 0.1 c 0,0 21.1,18.5 23.4,38.1 0.3,1.4 0.4,2.9 0.4,4.4 0,13.1 -10.7,23.8 -23.8,23.8 C 65.2,92.3 55,82.5 54.1,70.2 52.1,48.5 77.7,26 77.7,26 Z"
             data-part-id="logo__item--logo_0__0"
             id="path4485" />
          <path
             style="fill:#ffffff"
             inkscape:connector-curvature="0"
             d="m 77.9,92.3 c 13.1,0 23.8,-10.7 23.8,-23.8 0,-1.5 -0.1,-3 -0.4,-4.4 C 98.9,44.5 77.8,26 77.8,26 h -0.1 c 0,0 -25.6,22.5 -23.5,44.2 0.9,12.3 11.1,22.1 23.7,22.1 z m 15.7,-16 c 0,0 -4.8,4.3 -4.3,-1.6 0.5,-5.9 5.9,-18.3 -4.8,-32.8 0,0 17.2,17.2 9.1,34.4 z"
             data-part-id="logo__item--logo_0__1"
             id="path4487" />
          <path
             style="fill:#00a9de"
             inkscape:connector-curvature="0"
             d="m 89.3,74.7 c -0.5,5.9 4.3,1.6 4.3,1.6 8.1,-17.2 -9.1,-34.4 -9.1,-34.4 10.7,14.5 5.3,26.9 4.8,32.8 z"
             data-part-id="logo__item--logo_0__2"
             id="path4489" />
          <path
             style="fill:#00a9de"
             inkscape:connector-curvature="0"
             d="m 75.7,106.4 c -39.9,-13.7 -54.5,3.4 -54.5,3.4 12.4,-3.9 17.2,-3.4 53.2,11.6 36.1,15 54.1,-16.7 54.1,-16.7 -11.2,10.3 -23.3,11.9 -52.8,1.7 z"
             data-part-id="logo__item--logo_0__3"
             id="path4491" />
          <path
             style="fill:#00a9de"
             inkscape:connector-curvature="0"
             d="m 77.8,126.3 c -22.5,-6.8 -30.7,1.7 -30.7,1.7 7,-1.9 9.7,-1.7 30,5.8 20.3,7.5 30.5,-8.3 30.5,-8.3 -6.3,5.1 -13.2,5.8 -29.8,0.8 z"
             data-part-id="logo__item--logo_0__4"
             id="path4493" />
          <path
             style="fill:#73c8ea"
             inkscape:connector-curvature="0"
             d="m 89.3,105.6 c 3.9,-1.2 5.4,-1.1 16.8,3.7 11.4,4.7 17.1,-5.3 17.1,-5.3 -3.5,3.3 -7.4,3.8 -16.7,0.5 -12.6,-4.3 -17.2,1.1 -17.2,1.1 z"
             data-part-id="logo__item--logo_0__5"
             id="path4495" />
        </g>
      </g>
    </g>
    <text
       xml:space="preserve"
       style="font-style:normal;font-variant:normal;font-weight:bold;font-stretch:normal;font-size:47.17944717px;line-height:29.48715591px;font-family:'Segoe UI';-inkscape-font-specification:'Segoe UI, Bold';font-variant-ligatures:normal;font-variant-caps:normal;font-variant-numeric:normal;font-feature-settings:normal;text-align:start;letter-spacing:0px;word-spacing:0px;writing-mode:lr-tb;text-anchor:start;fill:#000000;fill-opacity:1;stroke:none;stroke-width:1.17948616"
       x="150.53947"
       y="131.62318"
       id="text4647-4"><tspan
         sodipodi:role="line"
         id="tspan4645-0"
         x="150.53947"
         y="131.62318"
         style="font-style:normal;font-variant:normal;font-weight:bold;font-stretch:normal;font-size:47.17944717px;font-family:'Segoe UI';-inkscape-font-specification:'Segoe UI, Bold';font-variant-ligatures:normal;font-variant-caps:normal;font-variant-numeric:normal;font-feature-settings:normal;text-align:start;writing-mode:lr-tb;text-anchor:start;fill:#00a9de;fill-opacity:1;stroke-width:1.17948616">Fluid</tspan></text>
  </g>
</svg>
